<?xml version="1.0" encoding="UTF-8" standalone="no"?>
<!-- Created with Inkscape (http://www.inkscape.org/) -->

<svg
   xmlns:dc="http://purl.org/dc/elements/1.1/"
   xmlns:cc="http://creativecommons.org/ns#"
   xmlns:rdf="http://www.w3.org/1999/02/22-rdf-syntax-ns#"
   xmlns:svg="http://www.w3.org/2000/svg"
   xmlns="http://www.w3.org/2000/svg"
   xmlns:sodipodi="http://sodipodi.sourceforge.net/DTD/sodipodi-0.dtd"
   xmlns:inkscape="http://www.inkscape.org/namespaces/inkscape"
   width="210mm"
   height="297mm"
   id="svg3021"
   version="1.1"
   inkscape:version="0.47pre4 r22446"
   sodipodi:docname="polyposter-big-red.svg">
  <defs
     id="defs3">
    <inkscape:perspective
       sodipodi:type="inkscape:persp3d"
       inkscape:vp_x="0 : 526.18109 : 1"
       inkscape:vp_y="0 : 1000 : 0"
       inkscape:vp_z="744.09448 : 526.18109 : 1"
       inkscape:persp3d-origin="372.04724 : 350.78739 : 1"
       id="perspective3027" />
    <inkscape:perspective
       id="perspective2996"
       inkscape:persp3d-origin="0.5 : 0.33333333 : 1"
       inkscape:vp_z="1 : 0.5 : 1"
       inkscape:vp_y="0 : 1000 : 0"
       inkscape:vp_x="0 : 0.5 : 1"
       sodipodi:type="inkscape:persp3d" />
    <inkscape:perspective
       id="perspective3156"
       inkscape:persp3d-origin="0.5 : 0.33333333 : 1"
       inkscape:vp_z="1 : 0.5 : 1"
       inkscape:vp_y="0 : 1000 : 0"
       inkscape:vp_x="0 : 0.5 : 1"
       sodipodi:type="inkscape:persp3d" />
    <inkscape:perspective
       id="perspective2875"
       inkscape:persp3d-origin="0.5 : 0.33333333 : 1"
       inkscape:vp_z="1 : 0.5 : 1"
       inkscape:vp_y="0 : 1000 : 0"
       inkscape:vp_x="0 : 0.5 : 1"
       sodipodi:type="inkscape:persp3d" />
  </defs>
  <sodipodi:namedview
     inkscape:document-units="mm"
     id="base"
     pagecolor="#ffffff"
     bordercolor="#666666"
     borderopacity="1.0"
     inkscape:pageopacity="0.0"
     inkscape:pageshadow="2"
     inkscape:zoom="0.453266"
     inkscape:cx="24.569159"
     inkscape:cy="526.18109"
     inkscape:current-layer="layer1"
     showgrid="false"
     inkscape:window-width="1024"
     inkscape:window-height="575"
     inkscape:window-x="0"
     inkscape:window-y="25"
     inkscape:window-maximized="0"
     showguides="true"
     inkscape:snap-global="true">
    <sodipodi:guide
       position="0,0"
       orientation="0,744.09448"
       id="guide2892" />
    <sodipodi:guide
       position="744.09448,0"
       orientation="-1052.3622,0"
       id="guide2894" />
    <sodipodi:guide
       position="744.09448,1052.3622"
       orientation="0,-744.09448"
       id="guide2896" />
    <sodipodi:guide
       position="0,1052.3622"
       orientation="1052.3622,0"
       id="guide2898" />
  </sodipodi:namedview>
  <metadata
     id="metadata4">
    <rdf:RDF>
      <cc:Work
         rdf:about="">
        <dc:format>image/svg+xml</dc:format>
        <dc:type
           rdf:resource="http://purl.org/dc/dcmitype/StillImage" />
        <dc:title />
      </cc:Work>
    </rdf:RDF>
  </metadata>
  <g
     inkscape:label="Layer 1"
     inkscape:groupmode="layer"
     id="layer1">
    <path
       style="color:#000000;fill:#ec0000;fill-opacity:1;fill-rule:nonzero;stroke-width:1;stroke-linecap:butt;stroke-linejoin:miter;stroke-miterlimit:4;stroke-opacity:1;stroke-dasharray:none;stroke-dashoffset:0;marker:none;visibility:visible;display:inline;overflow:visible;enable-background:accumulate"
       d="m 315.88329,698.98735 c -1.82347,-1.79432 -11.18708,-11.99929 -36.02466,-39.26163 -19.05358,-20.91367 -32.15176,-28.72356 -88.9869,-53.05898 -25.72162,-11.01338 -41.45112,-18.20898 -48.66431,-22.26194 -4.25427,-2.3904 -6.79784,-3.01746 -12.0428,-2.96885 -17.70527,0.16407 -37.48932,-2.77808 -49.01257,-7.28884 -12.293164,-4.81212 -18.442366,-13.50646 -15.914271,-22.50114 1.453084,-5.16993 5.253672,-9.39632 13.423852,-14.92783 7.157369,-4.8458 7.113379,-3.87655 0.898123,-19.78647 -4.433859,-11.34988 -6.86318,-25.13021 -6.753772,-38.31087 0.327802,-39.49219 24.550398,-66.94483 68.398658,-77.51951 19.44378,-4.6892 34.75837,-4.48879 48.7637,0.63806 6.38761,2.33827 11.95253,5.56477 21.53009,12.483 14.57842,10.53054 26.45978,17.1551 28.82698,16.07276 0.87046,-0.398 3.68971,-5.63189 6.26499,-11.63087 5.51454,-12.8458 13.24838,-25.16887 22.19774,-35.36977 8.25276,-9.40687 13.39998,-13.75131 23.21871,-19.59743 7.28341,-4.33658 9.24066,-5.03659 24.43431,-8.73905 16.10228,-3.9237 16.76676,-4.00185 26.48297,-3.10822 12.31045,1.13224 29.11691,6.96872 37.50873,13.02587 12.74662,9.20042 22.91357,21.80094 30.64127,37.97561 3.25347,6.80975 8.25703,27.54851 8.79516,36.45408 0.85465,14.1443 -1.17091,31.30703 -4.77126,40.42724 -1.96896,4.98764 -1.09693,5.73966 8.09829,6.98395 11.50328,1.55662 23.15687,5.72778 27.6558,9.89884 5.15339,4.77783 7.38874,11.87646 5.40637,17.16866 -2.02558,5.40752 -7.45962,10.55493 -16.70408,15.82296 -12.1306,6.91272 -21.7423,10.3734 -44.27553,15.94134 l -20.81313,5.14287 -9.48139,17.74344 c -20.84736,39.0137 -34.69415,77.88589 -37.34629,104.84244 -1.31991,13.41575 -2.73748,19.99377 -5.16977,23.98953 -2.18081,3.58264 -4.16571,4.10131 -6.58498,1.72072 z m -5.17707,-52.52152 c 2.1582,-18.27536 18.07926,-58.54804 33.60006,-84.99208 2.18991,-3.73112 3.61111,-7.14941 3.15822,-7.5962 -0.45288,-0.44679 -2.97779,-0.60209 -5.61091,-0.3451 -8.289,0.80897 -29.6502,0.5162 -40.77086,-0.5588 -12.84476,-1.24167 -21.51024,-3.14703 -30.9986,-6.81594 l -7.07853,-2.73708 -4.66226,3.58106 c -14.29294,10.97832 -30.39644,18.31673 -54.57925,24.87191 -14.80926,4.0143 -18.99954,5.4528 -18.75944,6.43994 0.37452,1.53979 10.93499,6.61842 36.12988,17.37518 46.68011,19.9297 55.34936,25.51181 76.91776,49.52723 6.1296,6.82501 9.38813,9.75251 10.36046,9.30794 0.80506,-0.36809 1.79685,-3.85273 2.29347,-8.05806 z m 105.3735,-116.68895 c 7.7786,-3.95772 13.27027,-8.55702 15.80189,-13.23416 3.33878,-6.16837 2.53311,-9.24338 -3.33043,-12.71133 -4.49039,-2.65579 -17.47961,-5.78273 -20.73364,-4.99126 -2.02016,0.49135 -25.05436,37.82215 -24.56891,39.81803 0.27726,1.13993 2.69055,0.68977 14.52121,-2.70865 7.80379,-2.24167 16.04323,-5.01936 18.30988,-6.17263 z m -51.35237,-2.18861 c 10.22318,-17.09208 14.52222,-27.19494 12.17911,-28.62123 -1.71151,-1.04183 -18.53736,0.80422 -36.80622,4.0382 -17.43615,3.08659 -36.10907,8.61112 -47.4095,14.02648 -6.89793,3.3056 -16.98008,11.35901 -17.13226,13.68486 -0.0458,0.69938 2.48885,2.95737 5.63247,5.01778 6.69687,4.38931 21.97311,8.44692 36.40285,9.66917 8.2367,0.69769 31.22418,0.46905 35.3521,-0.35161 0.83398,-0.1658 6.13564,-8.02444 11.78145,-17.46365 z m -146.81781,25.22232 c 4.32274,-2.00866 10.09828,-4.92009 12.83453,-6.46985 7.90062,-4.47478 16.55517,-12.32911 16.01814,-14.53706 -0.31541,-1.29678 -12.20188,-6.04798 -20.51973,-8.20204 -23.62258,-6.11748 -55.93568,-6.97887 -78.02361,-2.0799 l -8.96234,1.98779 0.92395,5.06091 c 1.80742,9.90021 10.51857,23.58799 22.00023,34.56888 l 4.98573,4.76829 21.44179,-5.72245 c 14.4923,-3.86775 23.98913,-6.90613 29.30131,-9.37457 z M 113.0004,565.77003 c -0.21343,-0.87747 -2.72987,-3.86121 -5.59208,-6.63053 -2.86222,-2.76932 -7.24358,-7.42692 -9.73635,-10.35023 -2.49276,-2.92331 -5.131,-5.16949 -5.86275,-4.99151 -1.68862,0.41072 -6.26923,8.79517 -6.48035,11.8618 -0.22891,3.32492 6.97142,7.54376 17.32048,10.14846 9.20051,2.31563 10.92197,2.30932 10.35105,-0.038 z m 151.04694,-48.44235 c 18.33738,-14.71621 54.57449,-26.18632 97.58221,-30.88764 11.63356,-1.2717 17.11294,-2.23331 17.63768,-3.09535 2.11173,-3.46914 -1.23588,-20.37994 -5.82029,-29.40177 -4.13375,-8.13497 -13.69791,-18.96376 -20.82614,-23.57988 -7.06474,-4.57501 -19.8445,-8.11045 -29.75443,-8.23138 -11.71208,-0.1429 -25.98557,6.45354 -36.62875,16.92786 -6.13185,6.03458 -15.82437,20.97567 -19.40869,29.91869 -3.58211,8.93748 -6.00804,12.09928 -10.03478,13.07869 -5.573,1.3555 -13.56094,-2.44011 -30.48368,-14.48486 -9.12782,-6.49672 -11.65775,-7.758 -18.89979,-9.42233 -23.43142,-5.3849 -52.97387,7.10519 -63.98207,27.05062 -3.26516,5.91605 -6.69922,20.92509 -5.906,25.813 l 0.55399,3.41378 14.91987,-1.84238 c 24.91903,-3.07713 45.78837,-3.25765 68.36427,-0.59136 12.43459,1.46856 19.92271,3.22093 29.46425,6.89516 4.05944,1.56321 7.44722,2.85301 7.52839,2.86622 0.0811,0.0132 2.64346,-1.97896 5.69396,-4.42707 z"
       id="path2944" />
    <path
       style="fill:#000000"
       d="m 409.14949,818.18978 c -0.66565,-1.99121 -2.76398,-12.00623 -4.66296,-22.25557 -6.27244,-33.85426 -14.26904,-63.08587 -23.14902,-84.62142 -2.18922,-5.30926 -3.99981,-10.39359 -4.02353,-11.2985 -0.0573,-2.18407 68.31822,-81.29901 70.52344,-81.60027 2.0094,-0.27451 53.0416,23.11353 53.98172,24.73981 0.52184,0.90271 -0.65902,13.69313 -2.90321,31.44588 -2.08056,16.45834 -6.11553,48.76849 -8.96658,71.80033 -2.85106,23.03183 -5.57683,42.08892 -6.05728,42.34908 -3.02481,1.63795 -47.15754,23.79569 -56.79989,28.51756 -13.38397,6.55415 -16.01503,6.68951 -17.94269,0.9231 z m 117.09877,-59.92539 c 0.14639,-39.78453 1.0589,-103.5728 1.48542,-103.83774 0.54303,-0.3373 7.45786,2.67577 59.7731,26.0456 43.21096,19.30284 46.93519,21.07672 46.66628,22.22745 -0.45479,1.94612 -25.90795,19.95309 -41.37268,29.2693 -16.62951,10.01789 -63.71345,34.40409 -65.58271,33.96727 -0.54823,-0.12812 -0.98447,-3.58046 -0.96941,-7.67188 z M 360.96345,667.72763 c -2.39229,-5.47322 -8.08668,-17.6899 -12.6542,-27.14817 -12.21323,-25.29074 -14.89046,-31.76226 -17.62805,-42.6113 -3.74755,-14.8515 -5.00703,-34.19872 -2.18333,-33.53886 1.00413,0.23466 78.14338,34.66895 91.6855,40.92761 5.08402,2.34964 9.55251,4.76931 9.93001,5.37703 0.79556,1.28079 -62.20301,67.68243 -63.78703,67.23269 -0.5573,-0.15828 -2.97061,-4.76578 -5.3629,-10.239 z m 283.84906,7.02176 c -4.9151,-1.92851 -32.91477,-12.62874 -62.22147,-23.77829 -43.56926,-16.57567 -53.4789,-20.64371 -54.34883,-22.31096 -0.58704,-1.12508 -0.91057,-23.21039 -0.72182,-49.27229 l 0.34209,-47.23328 4.23594,-3.47985 c 16.42163,-13.49056 34.08061,-21.03084 53.61345,-22.89265 8.72126,-0.83127 9.40089,-0.73939 29.36698,3.97032 19.77691,4.66509 20.68625,4.97312 28.06746,9.50717 15.80775,9.71021 24.84014,18.31109 34.23413,32.59868 9.33939,14.20453 13.98591,26.9576 15.18653,41.68171 0.83062,10.18665 -3.8863,33.82485 -9.29114,46.56125 -4.28209,10.09064 -13.31104,25.14407 -20.01345,33.36721 -5.32365,6.53154 -5.10639,6.51647 -18.44987,1.28098 z M 480.85229,612.33818 c -10.5537,-4.0501 -19.4626,-7.81565 -19.79755,-8.36792 -0.5565,-0.91753 50.64441,-60.33948 53.54274,-62.13979 0.87386,-0.54281 1.15671,-0.35034 0.92954,0.63256 -0.17953,0.77703 -2.41687,18.25392 -4.97178,38.83755 -2.5549,20.58363 -4.77172,37.97289 -4.92627,38.6428 -0.37321,1.61904 -2.2065,1.05634 -24.77668,-7.6052 z m -98.22325,-37.32169 c -29.8152,-11.39057 -54.31079,-20.77087 -54.43464,-20.84513 -0.12386,-0.0742 1.3395,-6.81676 3.25189,-14.98334 4.34435,-18.55074 8.24312,-26.79931 18.68772,-39.53466 6.76144,-8.2444 8.65688,-9.82079 21.32495,-17.73546 16.38598,-10.23752 25.78286,-13.54747 43.15349,-15.20035 l 11.55327,-1.09933 20.45545,4.75136 c 16.71716,3.88311 21.53766,5.34048 26.37726,7.97489 7.35901,4.00585 18.1182,11.9219 24.29618,17.87588 5.83512,5.62355 18.23859,24.22829 17.69717,26.54511 -0.34174,1.46238 -66.14102,71.00045 -69.83547,73.80361 -0.71141,0.53978 -2.87395,0.57103 -4.80564,0.0694 -1.93171,-0.50153 -27.90642,-10.2315 -57.72163,-21.62205 z"
       id="path3146" />
    <text
       xml:space="preserve"
       style="font-size:85.25027466px;font-style:normal;font-weight:normal;fill:#000000;fill-opacity:1;stroke:none;font-family:Bitstream Vera Sans"
       x="85.356697"
       y="166.08902"
       id="text2820"><tspan
         sodipodi:role="line"
         id="tspan2822"
         x="85.356697"
         y="166.08902"
         style="font-size:120px;font-style:normal;font-variant:normal;font-weight:bold;font-stretch:normal;font-family:Liberation Serif;-inkscape-font-specification:Liberation Serif Bold">RA- och</tspan><tspan
         sodipodi:role="line"
         x="85.356697"
         y="316.08902"
         style="font-size:120px;font-style:normal;font-variant:normal;font-weight:bold;font-stretch:normal;font-family:Liberation Serif;-inkscape-font-specification:Liberation Serif Bold"
         id="tspan2900" /></text>
    <text
       xml:space="preserve"
       style="font-size:40px;font-style:normal;font-weight:normal;fill:#000000;fill-opacity:1;stroke:none;font-family:Bitstream Vera Sans"
       x="116.92913"
       y="169.87817"
       id="text2824"><tspan
         sodipodi:role="line"
         id="tspan2826"
         x="116.92913"
         y="169.87817" /></text>
    <text
       xml:space="preserve"
       style="font-size:40px;font-style:normal;font-weight:normal;fill:#000000;fill-opacity:1;stroke:none;font-family:Bitstream Vera Sans"
       x="649.57751"
       y="764.0199"
       id="text3631"><tspan
         sodipodi:role="line"
         id="tspan3633"
         x="649.57751"
         y="764.0199" /></text>
    <text
       xml:space="preserve"
       style="font-size:85.25027466px;font-style:normal;font-weight:normal;fill:#000000;fill-opacity:1;stroke:none;font-family:Bitstream Vera Sans"
       x="379.32077"
       y="931.38391"
       id="text2820-6"><tspan
         sodipodi:role="line"
         id="tspan2822-4"
         x="379.32077"
         y="931.38391"
         style="font-size:90px;font-style:normal;font-variant:normal;font-weight:bold;font-stretch:normal;text-align:center;text-anchor:middle;font-family:Liberation Serif;-inkscape-font-specification:Liberation Serif Bold">Pågår här!</tspan><tspan
         sodipodi:role="line"
         x="379.32077"
         y="1043.8839"
         style="font-size:90px;font-style:normal;font-variant:normal;font-weight:bold;font-stretch:normal;text-align:center;text-anchor:middle;font-family:Liberation Serif;-inkscape-font-specification:Liberation Serif Bold"
         id="tspan2906" /></text>
    <text
       xml:space="preserve"
       style="font-size:40px;font-style:normal;font-weight:normal;fill:#000000;fill-opacity:1;stroke:none;font-family:Bitstream Vera Sans"
       x="253.71414"
       y="277.98248"
       id="text2902"><tspan
         sodipodi:role="line"
         id="tspan2904"
         x="253.71414"
         y="277.98248"
         style="font-size:120px;font-style:normal;font-variant:normal;font-weight:bold;font-stretch:normal;font-family:Liberation Serif;-inkscape-font-specification:Liberation Serif Bold">polyfika</tspan></text>
  </g>
</svg>
